ISO-10303-21;
HEADER;
/* Generated by software containing ST-Developer
 * from STEP Tools, Inc. (www.steptools.com) 
 */

FILE_DESCRIPTION(
/* description */ (''),
/* implementation_level */ '2;1');

FILE_NAME(
/* name */ 'L76K gps module.step',
/* time_stamp */ '2026-02-16T15:25:51-08:00',
/* author */ (''),
/* organization */ (''),
/* preprocessor_version */ 'ST-DEVELOPER v20.1',
/* originating_system */ 'Autodesk Translation Framework v14.24.0.0',
/* authorisation */ '');

FILE_SCHEMA (('AUTOMOTIVE_DESIGN { 1 0 10303 214 3 1 1 }'));
ENDSEC;

DATA;
#10=MECHANICAL_DESIGN_GEOMETRIC_PRESENTATION_REPRESENTATION('',(#13),#1171);
#11=SHAPE_REPRESENTATION_RELATIONSHIP('SRR','None',#1178,#12);
#12=ADVANCED_BREP_SHAPE_REPRESENTATION('',(#14),#1170);
#13=STYLED_ITEM('',(#1187),#14);
#14=MANIFOLD_SOLID_BREP('Body1',#717);
#15=TOROIDAL_SURFACE('',#762,0.999999999999999,0.5);
#16=FACE_BOUND('',#87,.T.);
#17=FACE_BOUND('',#108,.T.);
#18=CIRCLE('',#747,1.);
#19=CIRCLE('',#748,1.);
#20=CIRCLE('',#750,1.);
#21=CIRCLE('',#751,1.);
#22=CIRCLE('',#752,1.);
#23=CIRCLE('',#753,1.5);
#24=CIRCLE('',#756,1.);
#25=CIRCLE('',#758,1.);
#26=CIRCLE('',#761,1.);
#27=CIRCLE('',#763,0.999999999999999);
#28=CIRCLE('',#764,0.5);
#29=CYLINDRICAL_SURFACE('',#746,1.);
#30=CYLINDRICAL_SURFACE('',#755,1.);
#31=CYLINDRICAL_SURFACE('',#757,1.);
#32=CYLINDRICAL_SURFACE('',#760,1.);
#33=FACE_OUTER_BOUND('',#70,.T.);
#34=FACE_OUTER_BOUND('',#71,.T.);
#35=FACE_OUTER_BOUND('',#72,.T.);
#36=FACE_OUTER_BOUND('',#73,.T.);
#37=FACE_OUTER_BOUND('',#74,.T.);
#38=FACE_OUTER_BOUND('',#75,.T.);
#39=FACE_OUTER_BOUND('',#76,.T.);
#40=FACE_OUTER_BOUND('',#77,.T.);
#41=FACE_OUTER_BOUND('',#78,.T.);
#42=FACE_OUTER_BOUND('',#79,.T.);
#43=FACE_OUTER_BOUND('',#80,.T.);
#44=FACE_OUTER_BOUND('',#81,.T.);
#45=FACE_OUTER_BOUND('',#82,.T.);
#46=FACE_OUTER_BOUND('',#83,.T.);
#47=FACE_OUTER_BOUND('',#84,.T.);
#48=FACE_OUTER_BOUND('',#85,.T.);
#49=FACE_OUTER_BOUND('',#86,.T.);
#50=FACE_OUTER_BOUND('',#88,.T.);
#51=FACE_OUTER_BOUND('',#89,.T.);
#52=FACE_OUTER_BOUND('',#90,.T.);
#53=FACE_OUTER_BOUND('',#91,.T.);
#54=FACE_OUTER_BOUND('',#92,.T.);
#55=FACE_OUTER_BOUND('',#93,.T.);
#56=FACE_OUTER_BOUND('',#94,.T.);
#57=FACE_OUTER_BOUND('',#95,.T.);
#58=FACE_OUTER_BOUND('',#96,.T.);
#59=FACE_OUTER_BOUND('',#97,.T.);
#60=FACE_OUTER_BOUND('',#98,.T.);
#61=FACE_OUTER_BOUND('',#99,.T.);
#62=FACE_OUTER_BOUND('',#100,.T.);
#63=FACE_OUTER_BOUND('',#101,.T.);
#64=FACE_OUTER_BOUND('',#102,.T.);
#65=FACE_OUTER_BOUND('',#103,.T.);
#66=FACE_OUTER_BOUND('',#104,.T.);
#67=FACE_OUTER_BOUND('',#105,.T.);
#68=FACE_OUTER_BOUND('',#106,.T.);
#69=FACE_OUTER_BOUND('',#107,.T.);
#70=EDGE_LOOP('',(#450,#451,#452,#453));
#71=EDGE_LOOP('',(#454,#455,#456,#457,#458,#459,#460,#461,#462,#463,#464,
#465));
#72=EDGE_LOOP('',(#466,#467,#468,#469));
#73=EDGE_LOOP('',(#470,#471,#472,#473));
#74=EDGE_LOOP('',(#474,#475,#476,#477,#478,#479));
#75=EDGE_LOOP('',(#480,#481,#482,#483,#484,#485));
#76=EDGE_LOOP('',(#486,#487,#488,#489));
#77=EDGE_LOOP('',(#490,#491,#492,#493));
#78=EDGE_LOOP('',(#494,#495,#496,#497));
#79=EDGE_LOOP('',(#498,#499,#500,#501));
#80=EDGE_LOOP('',(#502,#503,#504,#505));
#81=EDGE_LOOP('',(#506,#507,#508,#509,#510,#511));
#82=EDGE_LOOP('',(#512,#513,#514,#515));
#83=EDGE_LOOP('',(#516,#517,#518,#519,#520,#521));
#84=EDGE_LOOP('',(#522,#523,#524,#525,#526,#527,#528,#529));
#85=EDGE_LOOP('',(#530,#531,#532,#533));
#86=EDGE_LOOP('',(#534,#535,#536,#537,#538,#539,#540,#541));
#87=EDGE_LOOP('',(#542));
#88=EDGE_LOOP('',(#543,#544,#545,#546));
#89=EDGE_LOOP('',(#547,#548,#549,#550));
#90=EDGE_LOOP('',(#551,#552,#553,#554));
#91=EDGE_LOOP('',(#555,#556,#557,#558));
#92=EDGE_LOOP('',(#559,#560,#561,#562));
#93=EDGE_LOOP('',(#563,#564,#565,#566));
#94=EDGE_LOOP('',(#567));
#95=EDGE_LOOP('',(#568,#569,#570,#571));
#96=EDGE_LOOP('',(#572,#573,#574,#575));
#97=EDGE_LOOP('',(#576,#577,#578,#579));
#98=EDGE_LOOP('',(#580,#581,#582,#583));
#99=EDGE_LOOP('',(#584,#585,#586,#587));
#100=EDGE_LOOP('',(#588,#589,#590,#591));
#101=EDGE_LOOP('',(#592,#593,#594,#595,#596,#597,#598,#599,#600,#601,#602,
#603,#604,#605,#606,#607));
#102=EDGE_LOOP('',(#608,#609,#610,#611,#612,#613,#614,#615));
#103=EDGE_LOOP('',(#616,#617,#618,#619));
#104=EDGE_LOOP('',(#620,#621,#622,#623));
#105=EDGE_LOOP('',(#624,#625,#626,#627));
#106=EDGE_LOOP('',(#628,#629,#630,#631,#632,#633,#634,#635));
#107=EDGE_LOOP('',(#636,#637,#638,#639));
#108=EDGE_LOOP('',(#640,#641,#642,#643,#644,#645,#646,#647));
#109=LINE('',#969,#197);
#110=LINE('',#971,#198);
#111=LINE('',#973,#199);
#112=LINE('',#974,#200);
#113=LINE('',#978,#201);
#114=LINE('',#980,#202);
#115=LINE('',#982,#203);
#116=LINE('',#984,#204);
#117=LINE('',#986,#205);
#118=LINE('',#988,#206);
#119=LINE('',#990,#207);
#120=LINE('',#992,#208);
#121=LINE('',#994,#209);
#122=LINE('',#996,#210);
#123=LINE('',#998,#211);
#124=LINE('',#999,#212);
#125=LINE('',#1002,#213);
#126=LINE('',#1004,#214);
#127=LINE('',#1005,#215);
#128=LINE('',#1009,#216);
#129=LINE('',#1010,#217);
#130=LINE('',#1011,#218);
#131=LINE('',#1013,#219);
#132=LINE('',#1014,#220);
#133=LINE('',#1016,#221);
#134=LINE('',#1017,#222);
#135=LINE('',#1022,#223);
#136=LINE('',#1024,#224);
#137=LINE('',#1026,#225);
#138=LINE('',#1027,#226);
#139=LINE('',#1031,#227);
#140=LINE('',#1033,#228);
#141=LINE('',#1035,#229);
#142=LINE('',#1036,#230);
#143=LINE('',#1039,#231);
#144=LINE('',#1041,#232);
#145=LINE('',#1042,#233);
#146=LINE('',#1045,#234);
#147=LINE('',#1046,#235);
#148=LINE('',#1050,#236);
#149=LINE('',#1051,#237);
#150=LINE('',#1052,#238);
#151=LINE('',#1053,#239);
#152=LINE('',#1056,#240);
#153=LINE('',#1057,#241);
#154=LINE('',#1060,#242);
#155=LINE('',#1061,#243);
#156=LINE('',#1062,#244);
#157=LINE('',#1064,#245);
#158=LINE('',#1070,#246);
#159=LINE('',#1073,#247);
#160=LINE('',#1076,#248);
#161=LINE('',#1080,#249);
#162=LINE('',#1084,#250);
#163=LINE('',#1087,#251);
#164=LINE('',#1092,#252);
#165=LINE('',#1093,#253);
#166=LINE('',#1097,#254);
#167=LINE('',#1100,#255);
#168=LINE('',#1103,#256);
#169=LINE('',#1106,#257);
#170=LINE('',#1107,#258);
#171=LINE('',#1110,#259);
#172=LINE('',#1118,#260);
#173=LINE('',#1120,#261);
#174=LINE('',#1124,#262);
#175=LINE('',#1126,#263);
#176=LINE('',#1128,#264);
#177=LINE('',#1129,#265);
#178=LINE('',#1132,#266);
#179=LINE('',#1134,#267);
#180=LINE('',#1135,#268);
#181=LINE('',#1138,#269);
#182=LINE('',#1140,#270);
#183=LINE('',#1141,#271);
#184=LINE('',#1143,#272);
#185=LINE('',#1146,#273);
#186=LINE('',#1147,#274);
#187=LINE('',#1149,#275);
#188=LINE('',#1150,#276);
#189=LINE('',#1152,#277);
#190=LINE('',#1153,#278);
#191=LINE('',#1155,#279);
#192=LINE('',#1159,#280);
#193=LINE('',#1160,#281);
#194=LINE('',#1163,#282);
#195=LINE('',#1164,#283);
#196=LINE('',#1166,#284);
#197=VECTOR('',#783,10.);
#198=VECTOR('',#784,10.);
#199=VECTOR('',#785,10.);
#200=VECTOR('',#786,10.);
#201=VECTOR('',#789,10.);
#202=VECTOR('',#790,10.);
#203=VECTOR('',#791,10.);
#204=VECTOR('',#792,10.);
#205=VECTOR('',#793,10.);
#206=VECTOR('',#794,10.);
#207=VECTOR('',#795,10.);
#208=VECTOR('',#796,10.);
#209=VECTOR('',#797,10.);
#210=VECTOR('',#798,10.);
#211=VECTOR('',#799,10.);
#212=VECTOR('',#800,10.);
#213=VECTOR('',#803,10.);
#214=VECTOR('',#804,10.);
#215=VECTOR('',#805,10.);
#216=VECTOR('',#808,10.);
#217=VECTOR('',#809,10.);
#218=VECTOR('',#810,10.);
#219=VECTOR('',#813,10.);
#220=VECTOR('',#814,10.);
#221=VECTOR('',#817,10.);
#222=VECTOR('',#818,10.);
#223=VECTOR('',#823,10.);
#224=VECTOR('',#824,10.);
#225=VECTOR('',#825,10.);
#226=VECTOR('',#826,10.);
#227=VECTOR('',#829,10.);
#228=VECTOR('',#830,10.);
#229=VECTOR('',#831,10.);
#230=VECTOR('',#832,10.);
#231=VECTOR('',#835,10.);
#232=VECTOR('',#836,10.);
#233=VECTOR('',#837,10.);
#234=VECTOR('',#840,10.);
#235=VECTOR('',#841,10.);
#236=VECTOR('',#844,10.);
#237=VECTOR('',#845,10.);
#238=VECTOR('',#846,10.);
#239=VECTOR('',#847,10.);
#240=VECTOR('',#850,10.);
#241=VECTOR('',#851,10.);
#242=VECTOR('',#854,10.);
#243=VECTOR('',#855,10.);
#244=VECTOR('',#856,10.);
#245=VECTOR('',#859,10.);
#246=VECTOR('',#864,10.);
#247=VECTOR('',#867,10.);
#248=VECTOR('',#870,10.);
#249=VECTOR('',#873,10.);
#250=VECTOR('',#876,10.);
#251=VECTOR('',#879,10.);
#252=VECTOR('',#884,10.);
#253=VECTOR('',#885,10.);
#254=VECTOR('',#890,10.);
#255=VECTOR('',#893,10.);
#256=VECTOR('',#896,10.);
#257=VECTOR('',#899,10.);
#258=VECTOR('',#900,10.);
#259=VECTOR('',#903,10.);
#260=VECTOR('',#916,10.);
#261=VECTOR('',#919,10.);
#262=VECTOR('',#922,10.);
#263=VECTOR('',#923,10.);
#264=VECTOR('',#924,10.);
#265=VECTOR('',#925,10.);
#266=VECTOR('',#928,10.);
#267=VECTOR('',#929,10.);
#268=VECTOR('',#930,10.);
#269=VECTOR('',#933,10.);
#270=VECTOR('',#934,10.);
#271=VECTOR('',#935,10.);
#272=VECTOR('',#938,10.);
#273=VECTOR('',#941,10.);
#274=VECTOR('',#942,10.);
#275=VECTOR('',#943,10.);
#276=VECTOR('',#944,10.);
#277=VECTOR('',#945,10.);
#278=VECTOR('',#946,10.);
#279=VECTOR('',#949,10.);
#280=VECTOR('',#954,10.);
#281=VECTOR('',#955,10.);
#282=VECTOR('',#958,10.);
#283=VECTOR('',#959,10.);
#284=VECTOR('',#962,10.);
#285=VERTEX_POINT('',#967);
#286=VERTEX_POINT('',#968);
#287=VERTEX_POINT('',#970);
#288=VERTEX_POINT('',#972);
#289=VERTEX_POINT('',#976);
#290=VERTEX_POINT('',#977);
#291=VERTEX_POINT('',#979);
#292=VERTEX_POINT('',#981);
#293=VERTEX_POINT('',#983);
#294=VERTEX_POINT('',#985);
#295=VERTEX_POINT('',#987);
#296=VERTEX_POINT('',#989);
#297=VERTEX_POINT('',#991);
#298=VERTEX_POINT('',#993);
#299=VERTEX_POINT('',#995);
#300=VERTEX_POINT('',#997);
#301=VERTEX_POINT('',#1001);
#302=VERTEX_POINT('',#1003);
#303=VERTEX_POINT('',#1007);
#304=VERTEX_POINT('',#1008);
#305=VERTEX_POINT('',#1020);
#306=VERTEX_POINT('',#1021);
#307=VERTEX_POINT('',#1023);
#308=VERTEX_POINT('',#1025);
#309=VERTEX_POINT('',#1029);
#310=VERTEX_POINT('',#1030);
#311=VERTEX_POINT('',#1032);
#312=VERTEX_POINT('',#1034);
#313=VERTEX_POINT('',#1038);
#314=VERTEX_POINT('',#1040);
#315=VERTEX_POINT('',#1044);
#316=VERTEX_POINT('',#1048);
#317=VERTEX_POINT('',#1049);
#318=VERTEX_POINT('',#1055);
#319=VERTEX_POINT('',#1059);
#320=VERTEX_POINT('',#1066);
#321=VERTEX_POINT('',#1067);
#322=VERTEX_POINT('',#1069);
#323=VERTEX_POINT('',#1071);
#324=VERTEX_POINT('',#1075);
#325=VERTEX_POINT('',#1077);
#326=VERTEX_POINT('',#1079);
#327=VERTEX_POINT('',#1081);
#328=VERTEX_POINT('',#1083);
#329=VERTEX_POINT('',#1085);
#330=VERTEX_POINT('',#1088);
#331=VERTEX_POINT('',#1091);
#332=VERTEX_POINT('',#1095);
#333=VERTEX_POINT('',#1099);
#334=VERTEX_POINT('',#1101);
#335=VERTEX_POINT('',#1105);
#336=VERTEX_POINT('',#1109);
#337=VERTEX_POINT('',#1113);
#338=VERTEX_POINT('',#1122);
#339=VERTEX_POINT('',#1123);
#340=VERTEX_POINT('',#1125);
#341=VERTEX_POINT('',#1127);
#342=VERTEX_POINT('',#1131);
#343=VERTEX_POINT('',#1133);
#344=VERTEX_POINT('',#1137);
#345=VERTEX_POINT('',#1139);
#346=VERTEX_POINT('',#1145);
#347=VERTEX_POINT('',#1148);
#348=VERTEX_POINT('',#1151);
#349=VERTEX_POINT('',#1158);
#350=VERTEX_POINT('',#1162);
#351=EDGE_CURVE('',#285,#286,#109,.T.);
#352=EDGE_CURVE('',#287,#285,#110,.T.);
#353=EDGE_CURVE('',#288,#287,#111,.T.);
#354=EDGE_CURVE('',#288,#286,#112,.T.);
#355=EDGE_CURVE('',#289,#290,#113,.T.);
#356=EDGE_CURVE('',#290,#291,#114,.T.);
#357=EDGE_CURVE('',#291,#292,#115,.T.);
#358=EDGE_CURVE('',#293,#292,#116,.T.);
#359=EDGE_CURVE('',#293,#294,#117,.T.);
#360=EDGE_CURVE('',#295,#294,#118,.T.);
#361=EDGE_CURVE('',#296,#295,#119,.T.);
#362=EDGE_CURVE('',#296,#297,#120,.T.);
#363=EDGE_CURVE('',#297,#298,#121,.T.);
#364=EDGE_CURVE('',#299,#298,#122,.T.);
#365=EDGE_CURVE('',#299,#300,#123,.T.);
#366=EDGE_CURVE('',#289,#300,#124,.T.);
#367=EDGE_CURVE('',#286,#301,#125,.T.);
#368=EDGE_CURVE('',#302,#301,#126,.F.);
#369=EDGE_CURVE('',#285,#302,#127,.T.);
#370=EDGE_CURVE('',#303,#304,#128,.F.);
#371=EDGE_CURVE('',#291,#303,#129,.T.);
#372=EDGE_CURVE('',#290,#304,#130,.T.);
#373=EDGE_CURVE('',#304,#302,#131,.F.);
#374=EDGE_CURVE('',#287,#289,#132,.T.);
#375=EDGE_CURVE('',#301,#303,#133,.F.);
#376=EDGE_CURVE('',#292,#288,#134,.T.);
#377=EDGE_CURVE('',#305,#306,#135,.T.);
#378=EDGE_CURVE('',#307,#305,#136,.T.);
#379=EDGE_CURVE('',#308,#307,#137,.T.);
#380=EDGE_CURVE('',#306,#308,#138,.T.);
#381=EDGE_CURVE('',#309,#310,#139,.T.);
#382=EDGE_CURVE('',#311,#309,#140,.T.);
#383=EDGE_CURVE('',#312,#311,#141,.T.);
#384=EDGE_CURVE('',#310,#312,#142,.T.);
#385=EDGE_CURVE('',#305,#313,#143,.T.);
#386=EDGE_CURVE('',#314,#313,#144,.T.);
#387=EDGE_CURVE('',#307,#314,#145,.T.);
#388=EDGE_CURVE('',#306,#315,#146,.T.);
#389=EDGE_CURVE('',#313,#315,#147,.T.);
#390=EDGE_CURVE('',#316,#317,#148,.T.);
#391=EDGE_CURVE('',#300,#316,#149,.T.);
#392=EDGE_CURVE('',#299,#309,#150,.T.);
#393=EDGE_CURVE('',#310,#317,#151,.T.);
#394=EDGE_CURVE('',#318,#312,#152,.T.);
#395=EDGE_CURVE('',#317,#318,#153,.T.);
#396=EDGE_CURVE('',#315,#319,#154,.T.);
#397=EDGE_CURVE('',#294,#308,#155,.T.);
#398=EDGE_CURVE('',#319,#293,#156,.T.);
#399=EDGE_CURVE('',#316,#319,#157,.T.);
#400=EDGE_CURVE('',#320,#321,#18,.T.);
#401=EDGE_CURVE('',#321,#322,#158,.T.);
#402=EDGE_CURVE('',#322,#323,#19,.F.);
#403=EDGE_CURVE('',#323,#320,#159,.T.);
#404=EDGE_CURVE('',#320,#324,#160,.T.);
#405=EDGE_CURVE('',#325,#324,#20,.T.);
#406=EDGE_CURVE('',#325,#326,#161,.T.);
#407=EDGE_CURVE('',#327,#326,#21,.T.);
#408=EDGE_CURVE('',#327,#328,#162,.T.);
#409=EDGE_CURVE('',#329,#328,#22,.T.);
#410=EDGE_CURVE('',#329,#321,#163,.T.);
#411=EDGE_CURVE('',#330,#330,#23,.T.);
#412=EDGE_CURVE('',#331,#323,#164,.T.);
#413=EDGE_CURVE('',#324,#331,#165,.T.);
#414=EDGE_CURVE('',#331,#332,#24,.F.);
#415=EDGE_CURVE('',#332,#325,#166,.T.);
#416=EDGE_CURVE('',#328,#333,#167,.T.);
#417=EDGE_CURVE('',#333,#334,#25,.F.);
#418=EDGE_CURVE('',#334,#329,#168,.T.);
#419=EDGE_CURVE('',#335,#327,#169,.T.);
#420=EDGE_CURVE('',#333,#335,#170,.T.);
#421=EDGE_CURVE('',#326,#336,#171,.T.);
#422=EDGE_CURVE('',#336,#335,#26,.F.);
#423=EDGE_CURVE('',#337,#337,#27,.T.);
#424=EDGE_CURVE('',#337,#330,#28,.T.);
#425=EDGE_CURVE('',#322,#334,#172,.T.);
#426=EDGE_CURVE('',#336,#332,#173,.T.);
#427=EDGE_CURVE('',#338,#339,#174,.T.);
#428=EDGE_CURVE('',#338,#340,#175,.T.);
#429=EDGE_CURVE('',#341,#340,#176,.T.);
#430=EDGE_CURVE('',#339,#341,#177,.T.);
#431=EDGE_CURVE('',#339,#342,#178,.T.);
#432=EDGE_CURVE('',#343,#341,#179,.T.);
#433=EDGE_CURVE('',#342,#343,#180,.T.);
#434=EDGE_CURVE('',#342,#344,#181,.T.);
#435=EDGE_CURVE('',#345,#343,#182,.T.);
#436=EDGE_CURVE('',#344,#345,#183,.T.);
#437=EDGE_CURVE('',#340,#345,#184,.T.);
#438=EDGE_CURVE('',#344,#346,#185,.T.);
#439=EDGE_CURVE('',#346,#295,#186,.T.);
#440=EDGE_CURVE('',#314,#347,#187,.T.);
#441=EDGE_CURVE('',#347,#311,#188,.T.);
#442=EDGE_CURVE('',#298,#348,#189,.T.);
#443=EDGE_CURVE('',#348,#338,#190,.T.);
#444=EDGE_CURVE('',#347,#318,#191,.T.);
#445=EDGE_CURVE('',#297,#349,#192,.T.);
#446=EDGE_CURVE('',#349,#348,#193,.T.);
#447=EDGE_CURVE('',#350,#296,#194,.T.);
#448=EDGE_CURVE('',#350,#346,#195,.T.);
#449=EDGE_CURVE('',#349,#350,#196,.T.);
#450=ORIENTED_EDGE('',*,*,#351,.F.);
#451=ORIENTED_EDGE('',*,*,#352,.F.);
#452=ORIENTED_EDGE('',*,*,#353,.F.);
#453=ORIENTED_EDGE('',*,*,#354,.T.);
#454=ORIENTED_EDGE('',*,*,#355,.T.);
#455=ORIENTED_EDGE('',*,*,#356,.T.);
#456=ORIENTED_EDGE('',*,*,#357,.T.);
#457=ORIENTED_EDGE('',*,*,#358,.F.);
#458=ORIENTED_EDGE('',*,*,#359,.T.);
#459=ORIENTED_EDGE('',*,*,#360,.F.);
#460=ORIENTED_EDGE('',*,*,#361,.F.);
#461=ORIENTED_EDGE('',*,*,#362,.T.);
#462=ORIENTED_EDGE('',*,*,#363,.T.);
#463=ORIENTED_EDGE('',*,*,#364,.F.);
#464=ORIENTED_EDGE('',*,*,#365,.T.);
#465=ORIENTED_EDGE('',*,*,#366,.F.);
#466=ORIENTED_EDGE('',*,*,#351,.T.);
#467=ORIENTED_EDGE('',*,*,#367,.T.);
#468=ORIENTED_EDGE('',*,*,#368,.F.);
#469=ORIENTED_EDGE('',*,*,#369,.F.);
#470=ORIENTED_EDGE('',*,*,#370,.F.);
#471=ORIENTED_EDGE('',*,*,#371,.F.);
#472=ORIENTED_EDGE('',*,*,#356,.F.);
#473=ORIENTED_EDGE('',*,*,#372,.T.);
#474=ORIENTED_EDGE('',*,*,#373,.F.);
#475=ORIENTED_EDGE('',*,*,#372,.F.);
#476=ORIENTED_EDGE('',*,*,#355,.F.);
#477=ORIENTED_EDGE('',*,*,#374,.F.);
#478=ORIENTED_EDGE('',*,*,#352,.T.);
#479=ORIENTED_EDGE('',*,*,#369,.T.);
#480=ORIENTED_EDGE('',*,*,#375,.F.);
#481=ORIENTED_EDGE('',*,*,#367,.F.);
#482=ORIENTED_EDGE('',*,*,#354,.F.);
#483=ORIENTED_EDGE('',*,*,#376,.F.);
#484=ORIENTED_EDGE('',*,*,#357,.F.);
#485=ORIENTED_EDGE('',*,*,#371,.T.);
#486=ORIENTED_EDGE('',*,*,#368,.T.);
#487=ORIENTED_EDGE('',*,*,#375,.T.);
#488=ORIENTED_EDGE('',*,*,#370,.T.);
#489=ORIENTED_EDGE('',*,*,#373,.T.);
#490=ORIENTED_EDGE('',*,*,#377,.F.);
#491=ORIENTED_EDGE('',*,*,#378,.F.);
#492=ORIENTED_EDGE('',*,*,#379,.F.);
#493=ORIENTED_EDGE('',*,*,#380,.F.);
#494=ORIENTED_EDGE('',*,*,#381,.F.);
#495=ORIENTED_EDGE('',*,*,#382,.F.);
#496=ORIENTED_EDGE('',*,*,#383,.F.);
#497=ORIENTED_EDGE('',*,*,#384,.F.);
#498=ORIENTED_EDGE('',*,*,#378,.T.);
#499=ORIENTED_EDGE('',*,*,#385,.T.);
#500=ORIENTED_EDGE('',*,*,#386,.F.);
#501=ORIENTED_EDGE('',*,*,#387,.F.);
#502=ORIENTED_EDGE('',*,*,#377,.T.);
#503=ORIENTED_EDGE('',*,*,#388,.T.);
#504=ORIENTED_EDGE('',*,*,#389,.F.);
#505=ORIENTED_EDGE('',*,*,#385,.F.);
#506=ORIENTED_EDGE('',*,*,#390,.F.);
#507=ORIENTED_EDGE('',*,*,#391,.F.);
#508=ORIENTED_EDGE('',*,*,#365,.F.);
#509=ORIENTED_EDGE('',*,*,#392,.T.);
#510=ORIENTED_EDGE('',*,*,#381,.T.);
#511=ORIENTED_EDGE('',*,*,#393,.T.);
#512=ORIENTED_EDGE('',*,*,#384,.T.);
#513=ORIENTED_EDGE('',*,*,#394,.F.);
#514=ORIENTED_EDGE('',*,*,#395,.F.);
#515=ORIENTED_EDGE('',*,*,#393,.F.);
#516=ORIENTED_EDGE('',*,*,#396,.F.);
#517=ORIENTED_EDGE('',*,*,#388,.F.);
#518=ORIENTED_EDGE('',*,*,#380,.T.);
#519=ORIENTED_EDGE('',*,*,#397,.F.);
#520=ORIENTED_EDGE('',*,*,#359,.F.);
#521=ORIENTED_EDGE('',*,*,#398,.F.);
#522=ORIENTED_EDGE('',*,*,#374,.T.);
#523=ORIENTED_EDGE('',*,*,#366,.T.);
#524=ORIENTED_EDGE('',*,*,#391,.T.);
#525=ORIENTED_EDGE('',*,*,#399,.T.);
#526=ORIENTED_EDGE('',*,*,#398,.T.);
#527=ORIENTED_EDGE('',*,*,#358,.T.);
#528=ORIENTED_EDGE('',*,*,#376,.T.);
#529=ORIENTED_EDGE('',*,*,#353,.T.);
#530=ORIENTED_EDGE('',*,*,#400,.T.);
#531=ORIENTED_EDGE('',*,*,#401,.T.);
#532=ORIENTED_EDGE('',*,*,#402,.T.);
#533=ORIENTED_EDGE('',*,*,#403,.T.);
#534=ORIENTED_EDGE('',*,*,#400,.F.);
#535=ORIENTED_EDGE('',*,*,#404,.T.);
#536=ORIENTED_EDGE('',*,*,#405,.F.);
#537=ORIENTED_EDGE('',*,*,#406,.T.);
#538=ORIENTED_EDGE('',*,*,#407,.F.);
#539=ORIENTED_EDGE('',*,*,#408,.T.);
#540=ORIENTED_EDGE('',*,*,#409,.F.);
#541=ORIENTED_EDGE('',*,*,#410,.T.);
#542=ORIENTED_EDGE('',*,*,#411,.T.);
#543=ORIENTED_EDGE('',*,*,#403,.F.);
#544=ORIENTED_EDGE('',*,*,#412,.F.);
#545=ORIENTED_EDGE('',*,*,#413,.F.);
#546=ORIENTED_EDGE('',*,*,#404,.F.);
#547=ORIENTED_EDGE('',*,*,#405,.T.);
#548=ORIENTED_EDGE('',*,*,#413,.T.);
#549=ORIENTED_EDGE('',*,*,#414,.T.);
#550=ORIENTED_EDGE('',*,*,#415,.T.);
#551=ORIENTED_EDGE('',*,*,#409,.T.);
#552=ORIENTED_EDGE('',*,*,#416,.T.);
#553=ORIENTED_EDGE('',*,*,#417,.T.);
#554=ORIENTED_EDGE('',*,*,#418,.T.);
#555=ORIENTED_EDGE('',*,*,#416,.F.);
#556=ORIENTED_EDGE('',*,*,#408,.F.);
#557=ORIENTED_EDGE('',*,*,#419,.F.);
#558=ORIENTED_EDGE('',*,*,#420,.F.);
#559=ORIENTED_EDGE('',*,*,#407,.T.);
#560=ORIENTED_EDGE('',*,*,#421,.T.);
#561=ORIENTED_EDGE('',*,*,#422,.T.);
#562=ORIENTED_EDGE('',*,*,#419,.T.);
#563=ORIENTED_EDGE('',*,*,#423,.T.);
#564=ORIENTED_EDGE('',*,*,#424,.T.);
#565=ORIENTED_EDGE('',*,*,#411,.F.);
#566=ORIENTED_EDGE('',*,*,#424,.F.);
#567=ORIENTED_EDGE('',*,*,#423,.F.);
#568=ORIENTED_EDGE('',*,*,#401,.F.);
#569=ORIENTED_EDGE('',*,*,#410,.F.);
#570=ORIENTED_EDGE('',*,*,#418,.F.);
#571=ORIENTED_EDGE('',*,*,#425,.F.);
#572=ORIENTED_EDGE('',*,*,#415,.F.);
#573=ORIENTED_EDGE('',*,*,#426,.F.);
#574=ORIENTED_EDGE('',*,*,#421,.F.);
#575=ORIENTED_EDGE('',*,*,#406,.F.);
#576=ORIENTED_EDGE('',*,*,#427,.F.);
#577=ORIENTED_EDGE('',*,*,#428,.T.);
#578=ORIENTED_EDGE('',*,*,#429,.F.);
#579=ORIENTED_EDGE('',*,*,#430,.F.);
#580=ORIENTED_EDGE('',*,*,#431,.F.);
#581=ORIENTED_EDGE('',*,*,#430,.T.);
#582=ORIENTED_EDGE('',*,*,#432,.F.);
#583=ORIENTED_EDGE('',*,*,#433,.F.);
#584=ORIENTED_EDGE('',*,*,#434,.F.);
#585=ORIENTED_EDGE('',*,*,#433,.T.);
#586=ORIENTED_EDGE('',*,*,#435,.F.);
#587=ORIENTED_EDGE('',*,*,#436,.F.);
#588=ORIENTED_EDGE('',*,*,#435,.T.);
#589=ORIENTED_EDGE('',*,*,#432,.T.);
#590=ORIENTED_EDGE('',*,*,#429,.T.);
#591=ORIENTED_EDGE('',*,*,#437,.T.);
#592=ORIENTED_EDGE('',*,*,#427,.T.);
#593=ORIENTED_EDGE('',*,*,#431,.T.);
#594=ORIENTED_EDGE('',*,*,#434,.T.);
#595=ORIENTED_EDGE('',*,*,#438,.T.);
#596=ORIENTED_EDGE('',*,*,#439,.T.);
#597=ORIENTED_EDGE('',*,*,#360,.T.);
#598=ORIENTED_EDGE('',*,*,#397,.T.);
#599=ORIENTED_EDGE('',*,*,#379,.T.);
#600=ORIENTED_EDGE('',*,*,#387,.T.);
#601=ORIENTED_EDGE('',*,*,#440,.T.);
#602=ORIENTED_EDGE('',*,*,#441,.T.);
#603=ORIENTED_EDGE('',*,*,#382,.T.);
#604=ORIENTED_EDGE('',*,*,#392,.F.);
#605=ORIENTED_EDGE('',*,*,#364,.T.);
#606=ORIENTED_EDGE('',*,*,#442,.T.);
#607=ORIENTED_EDGE('',*,*,#443,.T.);
#608=ORIENTED_EDGE('',*,*,#395,.T.);
#609=ORIENTED_EDGE('',*,*,#444,.F.);
#610=ORIENTED_EDGE('',*,*,#440,.F.);
#611=ORIENTED_EDGE('',*,*,#386,.T.);
#612=ORIENTED_EDGE('',*,*,#389,.T.);
#613=ORIENTED_EDGE('',*,*,#396,.T.);
#614=ORIENTED_EDGE('',*,*,#399,.F.);
#615=ORIENTED_EDGE('',*,*,#390,.T.);
#616=ORIENTED_EDGE('',*,*,#383,.T.);
#617=ORIENTED_EDGE('',*,*,#441,.F.);
#618=ORIENTED_EDGE('',*,*,#444,.T.);
#619=ORIENTED_EDGE('',*,*,#394,.T.);
#620=ORIENTED_EDGE('',*,*,#445,.T.);
#621=ORIENTED_EDGE('',*,*,#446,.T.);
#622=ORIENTED_EDGE('',*,*,#442,.F.);
#623=ORIENTED_EDGE('',*,*,#363,.F.);
#624=ORIENTED_EDGE('',*,*,#447,.T.);
#625=ORIENTED_EDGE('',*,*,#361,.T.);
#626=ORIENTED_EDGE('',*,*,#439,.F.);
#627=ORIENTED_EDGE('',*,*,#448,.F.);
#628=ORIENTED_EDGE('',*,*,#449,.T.);
#629=ORIENTED_EDGE('',*,*,#448,.T.);
#630=ORIENTED_EDGE('',*,*,#438,.F.);
#631=ORIENTED_EDGE('',*,*,#436,.T.);
#632=ORIENTED_EDGE('',*,*,#437,.F.);
#633=ORIENTED_EDGE('',*,*,#428,.F.);
#634=ORIENTED_EDGE('',*,*,#443,.F.);
#635=ORIENTED_EDGE('',*,*,#446,.F.);
#636=ORIENTED_EDGE('',*,*,#449,.F.);
#637=ORIENTED_EDGE('',*,*,#445,.F.);
#638=ORIENTED_EDGE('',*,*,#362,.F.);
#639=ORIENTED_EDGE('',*,*,#447,.F.);
#640=ORIENTED_EDGE('',*,*,#425,.T.);
#641=ORIENTED_EDGE('',*,*,#417,.F.);
#642=ORIENTED_EDGE('',*,*,#420,.T.);
#643=ORIENTED_EDGE('',*,*,#422,.F.);
#644=ORIENTED_EDGE('',*,*,#426,.T.);
#645=ORIENTED_EDGE('',*,*,#414,.F.);
#646=ORIENTED_EDGE('',*,*,#412,.T.);
#647=ORIENTED_EDGE('',*,*,#402,.F.);
#648=PLANE('',#731);
#649=PLANE('',#732);
#650=PLANE('',#733);
#651=PLANE('',#734);
#652=PLANE('',#735);
#653=PLANE('',#736);
#654=PLANE('',#737);
#655=PLANE('',#738);
#656=PLANE('',#739);
#657=PLANE('',#740);
#658=PLANE('',#741);
#659=PLANE('',#742);
#660=PLANE('',#743);
#661=PLANE('',#744);
#662=PLANE('',#745);
#663=PLANE('',#749);
#664=PLANE('',#754);
#665=PLANE('',#759);
#666=PLANE('',#765);
#667=PLANE('',#766);
#668=PLANE('',#767);
#669=PLANE('',#768);
#670=PLANE('',#769);
#671=PLANE('',#770);
#672=PLANE('',#771);
#673=PLANE('',#772);
#674=PLANE('',#773);
#675=PLANE('',#774);
#676=PLANE('',#775);
#677=PLANE('',#776);
#678=PLANE('',#777);
#679=PLANE('',#778);
#680=ADVANCED_FACE('',(#33),#648,.F.);
#681=ADVANCED_FACE('',(#34),#649,.T.);
#682=ADVANCED_FACE('',(#35),#650,.F.);
#683=ADVANCED_FACE('',(#36),#651,.F.);
#684=ADVANCED_FACE('',(#37),#652,.F.);
#685=ADVANCED_FACE('',(#38),#653,.F.);
#686=ADVANCED_FACE('',(#39),#654,.F.);
#687=ADVANCED_FACE('',(#40),#655,.F.);
#688=ADVANCED_FACE('',(#41),#656,.F.);
#689=ADVANCED_FACE('',(#42),#657,.T.);
#690=ADVANCED_FACE('',(#43),#658,.F.);
#691=ADVANCED_FACE('',(#44),#659,.F.);
#692=ADVANCED_FACE('',(#45),#660,.F.);
#693=ADVANCED_FACE('',(#46),#661,.F.);
#694=ADVANCED_FACE('',(#47),#662,.T.);
#695=ADVANCED_FACE('',(#48),#29,.T.);
#696=ADVANCED_FACE('',(#49,#16),#663,.T.);
#697=ADVANCED_FACE('',(#50),#664,.T.);
#698=ADVANCED_FACE('',(#51),#30,.T.);
#699=ADVANCED_FACE('',(#52),#31,.T.);
#700=ADVANCED_FACE('',(#53),#665,.T.);
#701=ADVANCED_FACE('',(#54),#32,.T.);
#702=ADVANCED_FACE('',(#55),#15,.T.);
#703=ADVANCED_FACE('',(#56),#666,.T.);
#704=ADVANCED_FACE('',(#57),#667,.T.);
#705=ADVANCED_FACE('',(#58),#668,.T.);
#706=ADVANCED_FACE('',(#59),#669,.T.);
#707=ADVANCED_FACE('',(#60),#670,.T.);
#708=ADVANCED_FACE('',(#61),#671,.T.);
#709=ADVANCED_FACE('',(#62),#672,.T.);
#710=ADVANCED_FACE('',(#63),#673,.T.);
#711=ADVANCED_FACE('',(#64),#674,.T.);
#712=ADVANCED_FACE('',(#65),#675,.T.);
#713=ADVANCED_FACE('',(#66),#676,.T.);
#714=ADVANCED_FACE('',(#67),#677,.T.);
#715=ADVANCED_FACE('',(#68),#678,.T.);
#716=ADVANCED_FACE('',(#69,#17),#679,.F.);
#717=CLOSED_SHELL('',(#680,#681,#682,#683,#684,#685,#686,#687,#688,#689,
#690,#691,#692,#693,#694,#695,#696,#697,#698,#699,#700,#701,#702,#703,#704,
#705,#706,#707,#708,#709,#710,#711,#712,#713,#714,#715,#716));
#718=DERIVED_UNIT_ELEMENT(#720,1.);
#719=DERIVED_UNIT_ELEMENT(#1173,-3.);
#720=(
MASS_UNIT()
NAMED_UNIT(*)
SI_UNIT(.KILO.,.GRAM.)
);
#721=DERIVED_UNIT((#718,#719));
#722=MEASURE_REPRESENTATION_ITEM('density measure',
POSITIVE_RATIO_MEASURE(7850.),#721);
#723=PROPERTY_DEFINITION_REPRESENTATION(#728,#725);
#724=PROPERTY_DEFINITION_REPRESENTATION(#729,#726);
#725=REPRESENTATION('material name',(#727),#1170);
#726=REPRESENTATION('density',(#722),#1170);
#727=DESCRIPTIVE_REPRESENTATION_ITEM('Steel','Steel');
#728=PROPERTY_DEFINITION('material property','material name',#1180);
#729=PROPERTY_DEFINITION('material property','density of part',#1180);
#730=AXIS2_PLACEMENT_3D('',#965,#779,#780);
#731=AXIS2_PLACEMENT_3D('',#966,#781,#782);
#732=AXIS2_PLACEMENT_3D('',#975,#787,#788);
#733=AXIS2_PLACEMENT_3D('',#1000,#801,#802);
#734=AXIS2_PLACEMENT_3D('',#1006,#806,#807);
#735=AXIS2_PLACEMENT_3D('',#1012,#811,#812);
#736=AXIS2_PLACEMENT_3D('',#1015,#815,#816);
#737=AXIS2_PLACEMENT_3D('',#1018,#819,#820);
#738=AXIS2_PLACEMENT_3D('',#1019,#821,#822);
#739=AXIS2_PLACEMENT_3D('',#1028,#827,#828);
#740=AXIS2_PLACEMENT_3D('',#1037,#833,#834);
#741=AXIS2_PLACEMENT_3D('',#1043,#838,#839);
#742=AXIS2_PLACEMENT_3D('',#1047,#842,#843);
#743=AXIS2_PLACEMENT_3D('',#1054,#848,#849);
#744=AXIS2_PLACEMENT_3D('',#1058,#852,#853);
#745=AXIS2_PLACEMENT_3D('',#1063,#857,#858);
#746=AXIS2_PLACEMENT_3D('',#1065,#860,#861);
#747=AXIS2_PLACEMENT_3D('',#1068,#862,#863);
#748=AXIS2_PLACEMENT_3D('',#1072,#865,#866);
#749=AXIS2_PLACEMENT_3D('',#1074,#868,#869);
#750=AXIS2_PLACEMENT_3D('',#1078,#871,#872);
#751=AXIS2_PLACEMENT_3D('',#1082,#874,#875);
#752=AXIS2_PLACEMENT_3D('',#1086,#877,#878);
#753=AXIS2_PLACEMENT_3D('',#1089,#880,#881);
#754=AXIS2_PLACEMENT_3D('',#1090,#882,#883);
#755=AXIS2_PLACEMENT_3D('',#1094,#886,#887);
#756=AXIS2_PLACEMENT_3D('',#1096,#888,#889);
#757=AXIS2_PLACEMENT_3D('',#1098,#891,#892);
#758=AXIS2_PLACEMENT_3D('',#1102,#894,#895);
#759=AXIS2_PLACEMENT_3D('',#1104,#897,#898);
#760=AXIS2_PLACEMENT_3D('',#1108,#901,#902);
#761=AXIS2_PLACEMENT_3D('',#1111,#904,#905);
#762=AXIS2_PLACEMENT_3D('',#1112,#906,#907);
#763=AXIS2_PLACEMENT_3D('',#1114,#908,#909);
#764=AXIS2_PLACEMENT_3D('',#1115,#910,#911);
#765=AXIS2_PLACEMENT_3D('',#1116,#912,#913);
#766=AXIS2_PLACEMENT_3D('',#1117,#914,#915);
#767=AXIS2_PLACEMENT_3D('',#1119,#917,#918);
#768=AXIS2_PLACEMENT_3D('',#1121,#920,#921);
#769=AXIS2_PLACEMENT_3D('',#1130,#926,#927);
#770=AXIS2_PLACEMENT_3D('',#1136,#931,#932);
#771=AXIS2_PLACEMENT_3D('',#1142,#936,#937);
#772=AXIS2_PLACEMENT_3D('',#1144,#939,#940);
#773=AXIS2_PLACEMENT_3D('',#1154,#947,#948);
#774=AXIS2_PLACEMENT_3D('',#1156,#950,#951);
#775=AXIS2_PLACEMENT_3D('',#1157,#952,#953);
#776=AXIS2_PLACEMENT_3D('',#1161,#956,#957);
#777=AXIS2_PLACEMENT_3D('',#1165,#960,#961);
#778=AXIS2_PLACEMENT_3D('',#1167,#963,#964);
#779=DIRECTION('axis',(0.,0.,1.));
#780=DIRECTION('refdir',(1.,0.,0.));
#781=DIRECTION('center_axis',(-1.,1.91748363493119E-16,0.));
#782=DIRECTION('ref_axis',(1.91748363493119E-16,1.,0.));
#783=DIRECTION('',(-1.91748363493119E-16,-1.,0.));
#784=DIRECTION('',(0.,0.,-1.));
#785=DIRECTION('',(1.91748363493119E-16,1.,0.));
#786=DIRECTION('',(0.,0.,-1.));
#787=DIRECTION('center_axis',(1.,0.,0.));
#788=DIRECTION('ref_axis',(0.,1.,0.));
#789=DIRECTION('',(0.,0.,-1.));
#790=DIRECTION('',(0.,-1.,0.));
#791=DIRECTION('',(0.,0.,1.));
#792=DIRECTION('',(0.,1.,0.));
#793=DIRECTION('',(0.,0.,-1.));
#794=DIRECTION('',(0.,1.,0.));
#795=DIRECTION('',(0.,0.,1.));
#796=DIRECTION('',(0.,1.,0.));
#797=DIRECTION('',(0.,0.,1.));
#798=DIRECTION('',(0.,1.,0.));
#799=DIRECTION('',(0.,0.,1.));
#800=DIRECTION('',(0.,1.,0.));
#801=DIRECTION('center_axis',(0.,0.,1.));
#802=DIRECTION('ref_axis',(0.,1.,0.));
#803=DIRECTION('',(-1.,0.,0.));
#804=DIRECTION('',(0.,1.,0.));
#805=DIRECTION('',(-1.,0.,0.));
#806=DIRECTION('center_axis',(0.,0.,-1.));
#807=DIRECTION('ref_axis',(0.,-1.,0.));
#808=DIRECTION('',(0.,-1.,0.));
#809=DIRECTION('',(-1.,0.,0.));
#810=DIRECTION('',(-1.,0.,0.));
#811=DIRECTION('center_axis',(0.,1.,0.));
#812=DIRECTION('ref_axis',(0.,0.,-1.));
#813=DIRECTION('',(0.,0.,-1.));
#814=DIRECTION('',(1.,0.,0.));
#815=DIRECTION('center_axis',(0.,-1.,0.));
#816=DIRECTION('ref_axis',(0.,0.,1.));
#817=DIRECTION('',(0.,0.,1.));
#818=DIRECTION('',(-1.,0.,0.));
#819=DIRECTION('center_axis',(-1.,0.,0.));
#820=DIRECTION('ref_axis',(0.,0.,1.));
#821=DIRECTION('center_axis',(-1.,0.,0.));
#822=DIRECTION('ref_axis',(0.,0.,1.));
#823=DIRECTION('',(0.,1.,0.));
#824=DIRECTION('',(0.,0.,1.));
#825=DIRECTION('',(0.,-1.,2.05596856412066E-16));
#826=DIRECTION('',(0.,-9.57088814332031E-17,-1.));
#827=DIRECTION('center_axis',(-1.,0.,0.));
#828=DIRECTION('ref_axis',(0.,0.,1.));
#829=DIRECTION('',(0.,0.,1.));
#830=DIRECTION('',(0.,-1.,0.));
#831=DIRECTION('',(0.,0.,-1.));
#832=DIRECTION('',(0.,1.,0.));
#833=DIRECTION('center_axis',(0.,-1.,0.));
#834=DIRECTION('ref_axis',(1.,0.,0.));
#835=DIRECTION('',(-1.,0.,0.));
#836=DIRECTION('',(0.,0.,1.));
#837=DIRECTION('',(-1.,0.,0.));
#838=DIRECTION('center_axis',(0.,0.,-1.));
#839=DIRECTION('ref_axis',(0.,-1.,0.));
#840=DIRECTION('',(-1.,0.,0.));
#841=DIRECTION('',(0.,1.,0.));
#842=DIRECTION('center_axis',(0.,-1.,0.));
#843=DIRECTION('ref_axis',(0.,0.,1.));
#844=DIRECTION('',(0.,0.,-1.));
#845=DIRECTION('',(-1.,0.,0.));
#846=DIRECTION('',(-1.,0.,0.));
#847=DIRECTION('',(-1.,0.,0.));
#848=DIRECTION('center_axis',(0.,0.,-1.));
#849=DIRECTION('ref_axis',(0.,-1.,0.));
#850=DIRECTION('',(1.,0.,0.));
#851=DIRECTION('',(0.,1.,0.));
#852=DIRECTION('center_axis',(0.,1.,0.));
#853=DIRECTION('ref_axis',(0.,0.,-1.));
#854=DIRECTION('',(0.,0.,1.));
#855=DIRECTION('',(-1.,0.,0.));
#856=DIRECTION('',(1.,0.,0.));
#857=DIRECTION('center_axis',(0.,0.,1.));
#858=DIRECTION('ref_axis',(1.,0.,0.));
#859=DIRECTION('',(0.,-1.,0.));
#860=DIRECTION('center_axis',(0.,0.,-1.));
#861=DIRECTION('ref_axis',(-0.707106781186547,0.707106781186548,0.));
#862=DIRECTION('center_axis',(0.,0.,1.));
#863=DIRECTION('ref_axis',(-0.707106781186547,0.707106781186548,0.));
#864=DIRECTION('',(0.,0.,1.));
#865=DIRECTION('center_axis',(0.,0.,1.));
#866=DIRECTION('ref_axis',(-0.707106781186547,0.707106781186548,0.));
#867=DIRECTION('',(0.,0.,-1.));
#868=DIRECTION('center_axis',(0.,0.,-1.));
#869=DIRECTION('ref_axis',(-1.,0.,0.));
#870=DIRECTION('',(1.,0.,0.));
#871=DIRECTION('center_axis',(0.,0.,1.));
#872=DIRECTION('ref_axis',(0.707106781186548,0.707106781186548,0.));
#873=DIRECTION('',(0.,-1.,0.));
#874=DIRECTION('center_axis',(0.,0.,1.));
#875=DIRECTION('ref_axis',(0.707106781186548,-0.707106781186547,0.));
#876=DIRECTION('',(-1.,0.,0.));
#877=DIRECTION('center_axis',(0.,0.,1.));
#878=DIRECTION('ref_axis',(-0.707106781186547,-0.707106781186548,0.));
#879=DIRECTION('',(0.,1.,0.));
#880=DIRECTION('center_axis',(0.,0.,1.));
#881=DIRECTION('ref_axis',(1.,0.,0.));
#882=DIRECTION('center_axis',(0.,1.,0.));
#883=DIRECTION('ref_axis',(1.,0.,0.));
#884=DIRECTION('',(-1.,0.,0.));
#885=DIRECTION('',(0.,0.,1.));
#886=DIRECTION('center_axis',(0.,0.,-1.));
#887=DIRECTION('ref_axis',(0.707106781186548,0.707106781186548,0.));
#888=DIRECTION('center_axis',(0.,0.,1.));
#889=DIRECTION('ref_axis',(0.707106781186548,0.707106781186548,0.));
#890=DIRECTION('',(0.,0.,-1.));
#891=DIRECTION('center_axis',(0.,0.,-1.));
#892=DIRECTION('ref_axis',(-0.707106781186547,-0.707106781186548,0.));
#893=DIRECTION('',(0.,0.,1.));
#894=DIRECTION('center_axis',(0.,0.,1.));
#895=DIRECTION('ref_axis',(-0.707106781186547,-0.707106781186548,0.));
#896=DIRECTION('',(0.,0.,-1.));
#897=DIRECTION('center_axis',(0.,-1.,0.));
#898=DIRECTION('ref_axis',(-1.,0.,0.));
#899=DIRECTION('',(0.,0.,-1.));
#900=DIRECTION('',(1.,0.,0.));
#901=DIRECTION('center_axis',(0.,0.,-1.));
#902=DIRECTION('ref_axis',(0.707106781186548,-0.707106781186547,0.));
#903=DIRECTION('',(0.,0.,1.));
#904=DIRECTION('center_axis',(0.,0.,1.));
#905=DIRECTION('ref_axis',(0.707106781186548,-0.707106781186547,0.));
#906=DIRECTION('center_axis',(0.,0.,-1.));
#907=DIRECTION('ref_axis',(-1.,0.,0.));
#908=DIRECTION('center_axis',(0.,0.,1.));
#909=DIRECTION('ref_axis',(1.,0.,0.));
#910=DIRECTION('center_axis',(0.,-1.,0.));
#911=DIRECTION('ref_axis',(1.,0.,0.));
#912=DIRECTION('center_axis',(0.,0.,-1.));
#913=DIRECTION('ref_axis',(1.,0.,0.));
#914=DIRECTION('center_axis',(-1.,0.,0.));
#915=DIRECTION('ref_axis',(0.,1.,0.));
#916=DIRECTION('',(0.,-1.,0.));
#917=DIRECTION('center_axis',(1.,0.,0.));
#918=DIRECTION('ref_axis',(0.,-1.,0.));
#919=DIRECTION('',(0.,1.,0.));
#920=DIRECTION('center_axis',(0.,1.,0.));
#921=DIRECTION('ref_axis',(-1.,0.,0.));
#922=DIRECTION('',(1.,0.,0.));
#923=DIRECTION('',(0.,0.,1.));
#924=DIRECTION('',(-1.,0.,0.));
#925=DIRECTION('',(0.,0.,1.));
#926=DIRECTION('center_axis',(1.,0.,0.));
#927=DIRECTION('ref_axis',(0.,1.,0.));
#928=DIRECTION('',(0.,-1.,0.));
#929=DIRECTION('',(0.,1.,0.));
#930=DIRECTION('',(0.,0.,1.));
#931=DIRECTION('center_axis',(0.,-1.,0.));
#932=DIRECTION('ref_axis',(1.,0.,0.));
#933=DIRECTION('',(-1.,0.,0.));
#934=DIRECTION('',(1.,0.,0.));
#935=DIRECTION('',(0.,0.,1.));
#936=DIRECTION('center_axis',(0.,0.,1.));
#937=DIRECTION('ref_axis',(1.,0.,0.));
#938=DIRECTION('',(0.,-1.,0.));
#939=DIRECTION('center_axis',(0.,0.,1.));
#940=DIRECTION('ref_axis',(1.,0.,0.));
#941=DIRECTION('',(6.12323399573677E-17,-1.,0.));
#942=DIRECTION('',(1.,0.,0.));
#943=DIRECTION('',(0.,1.,0.));
#944=DIRECTION('',(1.,0.,0.));
#945=DIRECTION('',(-1.,0.,0.));
#946=DIRECTION('',(6.12323399573677E-17,-1.,0.));
#947=DIRECTION('center_axis',(-1.,0.,0.));
#948=DIRECTION('ref_axis',(0.,-1.,0.));
#949=DIRECTION('',(0.,0.,1.));
#950=DIRECTION('center_axis',(0.,1.,0.));
#951=DIRECTION('ref_axis',(-1.,0.,0.));
#952=DIRECTION('center_axis',(0.,1.,0.));
#953=DIRECTION('ref_axis',(-1.,0.,0.));
#954=DIRECTION('',(-1.,0.,0.));
#955=DIRECTION('',(0.,0.,1.));
#956=DIRECTION('center_axis',(0.,-1.,0.));
#957=DIRECTION('ref_axis',(1.,0.,0.));
#958=DIRECTION('',(1.,0.,0.));
#959=DIRECTION('',(0.,0.,1.));
#960=DIRECTION('center_axis',(-1.,-6.12323399573677E-17,0.));
#961=DIRECTION('ref_axis',(6.12323399573677E-17,-1.,0.));
#962=DIRECTION('',(6.12323399573677E-17,-1.,0.));
#963=DIRECTION('center_axis',(0.,0.,1.));
#964=DIRECTION('ref_axis',(1.,0.,0.));
#965=CARTESIAN_POINT('',(0.,0.,0.));
#966=CARTESIAN_POINT('Origin',(16.67,2.21,5.45));
#967=CARTESIAN_POINT('',(16.67,13.79,5.09));
#968=CARTESIAN_POINT('',(16.67,2.21,5.09));
#969=CARTESIAN_POINT('',(16.67,2.21,5.09));
#970=CARTESIAN_POINT('',(16.67,13.79,5.45));
#971=CARTESIAN_POINT('',(16.67,13.79,5.45));
#972=CARTESIAN_POINT('',(16.67,2.21,5.45));
#973=CARTESIAN_POINT('',(16.67,5.105,5.45));
#974=CARTESIAN_POINT('',(16.67,2.21,5.45));
#975=CARTESIAN_POINT('Origin',(18.25,0.,0.));
#976=CARTESIAN_POINT('',(18.25,13.79,5.45));
#977=CARTESIAN_POINT('',(18.25,13.79,1.75));
#978=CARTESIAN_POINT('',(18.25,13.79,2.545));
#979=CARTESIAN_POINT('',(18.25,2.21,1.75));
#980=CARTESIAN_POINT('',(18.25,6.895,1.75));
#981=CARTESIAN_POINT('',(18.25,2.21,5.45));
#982=CARTESIAN_POINT('',(18.25,2.21,2.725));
#983=CARTESIAN_POINT('',(18.25,1.85,5.45));
#984=CARTESIAN_POINT('',(18.25,15.5,5.45));
#985=CARTESIAN_POINT('',(18.25,1.85,1.75));
#986=CARTESIAN_POINT('',(18.25,1.85,2.725));
#987=CARTESIAN_POINT('',(18.25,0.,1.75));
#988=CARTESIAN_POINT('',(18.25,0.,1.75));
#989=CARTESIAN_POINT('',(18.25,0.,0.));
#990=CARTESIAN_POINT('',(18.25,0.,0.));
#991=CARTESIAN_POINT('',(18.25,16.,0.));
#992=CARTESIAN_POINT('',(18.25,0.,0.));
#993=CARTESIAN_POINT('',(18.25,16.,1.75));
#994=CARTESIAN_POINT('',(18.25,16.,0.));
#995=CARTESIAN_POINT('',(18.25,14.15,1.75));
#996=CARTESIAN_POINT('',(18.25,0.,1.75));
#997=CARTESIAN_POINT('',(18.25,14.15,5.45));
#998=CARTESIAN_POINT('',(18.25,14.15,2.325));
#999=CARTESIAN_POINT('',(18.25,15.5,5.45));
#1000=CARTESIAN_POINT('Origin',(18.25,2.21,5.09));
#1001=CARTESIAN_POINT('',(13.61,2.21,5.09));
#1002=CARTESIAN_POINT('',(18.25,2.21,5.09));
#1003=CARTESIAN_POINT('',(13.61,13.79,5.09));
#1004=CARTESIAN_POINT('',(13.61,5.105,5.09));
#1005=CARTESIAN_POINT('',(18.25,13.79,5.09));
#1006=CARTESIAN_POINT('Origin',(18.25,13.79,1.75));
#1007=CARTESIAN_POINT('',(13.61,2.21,1.75));
#1008=CARTESIAN_POINT('',(13.61,13.79,1.75));
#1009=CARTESIAN_POINT('',(13.61,10.895,1.75));
#1010=CARTESIAN_POINT('',(18.25,2.21,1.75));
#1011=CARTESIAN_POINT('',(18.25,13.79,1.75));
#1012=CARTESIAN_POINT('Origin',(18.25,13.79,5.09));
#1013=CARTESIAN_POINT('',(13.61,13.79,4.255));
#1014=CARTESIAN_POINT('',(16.21,13.79,5.45));
#1015=CARTESIAN_POINT('Origin',(18.25,2.21,1.75));
#1016=CARTESIAN_POINT('',(13.61,2.21,2.585));
#1017=CARTESIAN_POINT('',(17.,2.21,5.45));
#1018=CARTESIAN_POINT('Origin',(13.61,8.,3.42));
#1019=CARTESIAN_POINT('Origin',(16.45,1.175,3.2));
#1020=CARTESIAN_POINT('',(16.45,0.5,4.65));
#1021=CARTESIAN_POINT('',(16.45,1.85,4.65));
#1022=CARTESIAN_POINT('',(16.45,1.5125,4.65));
#1023=CARTESIAN_POINT('',(16.45,0.5,1.75));
#1024=CARTESIAN_POINT('',(16.45,0.5,2.475));
#1025=CARTESIAN_POINT('',(16.45,1.85,1.75));
#1026=CARTESIAN_POINT('',(16.45,1.85,1.75));
#1027=CARTESIAN_POINT('',(16.45,1.85,4.65));
#1028=CARTESIAN_POINT('Origin',(16.45,14.825,3.2));
#1029=CARTESIAN_POINT('',(16.45,14.15,1.75));
#1030=CARTESIAN_POINT('',(16.45,14.15,4.65));
#1031=CARTESIAN_POINT('',(16.45,14.15,5.45));
#1032=CARTESIAN_POINT('',(16.45,15.5,1.75));
#1033=CARTESIAN_POINT('',(16.45,14.15,1.75));
#1034=CARTESIAN_POINT('',(16.45,15.5,4.65));
#1035=CARTESIAN_POINT('',(16.45,15.5,2.475));
#1036=CARTESIAN_POINT('',(16.45,15.1625,4.65));
#1037=CARTESIAN_POINT('Origin',(13.25,0.5,1.75));
#1038=CARTESIAN_POINT('',(13.25,0.5,4.65));
#1039=CARTESIAN_POINT('',(15.75,0.5,4.65));
#1040=CARTESIAN_POINT('',(13.25,0.5,1.75));
#1041=CARTESIAN_POINT('',(13.25,0.5,1.75));
#1042=CARTESIAN_POINT('',(11.1875,0.5,1.75));
#1043=CARTESIAN_POINT('Origin',(18.25,1.85,4.65));
#1044=CARTESIAN_POINT('',(13.25,1.85,4.65));
#1045=CARTESIAN_POINT('',(18.25,1.85,4.65));
#1046=CARTESIAN_POINT('',(13.25,8.675,4.65));
#1047=CARTESIAN_POINT('Origin',(18.25,14.15,4.65));
#1048=CARTESIAN_POINT('',(13.25,14.15,5.45));
#1049=CARTESIAN_POINT('',(13.25,14.15,4.65));
#1050=CARTESIAN_POINT('',(13.25,14.15,3.2));
#1051=CARTESIAN_POINT('',(17.,14.15,5.45));
#1052=CARTESIAN_POINT('',(18.25,14.15,1.75));
#1053=CARTESIAN_POINT('',(18.25,14.15,4.65));
#1054=CARTESIAN_POINT('Origin',(18.25,15.5,4.65));
#1055=CARTESIAN_POINT('',(13.25,15.5,4.65));
#1056=CARTESIAN_POINT('',(18.25,15.5,4.65));
#1057=CARTESIAN_POINT('',(13.25,15.5,4.65));
#1058=CARTESIAN_POINT('Origin',(18.25,1.85,5.45));
#1059=CARTESIAN_POINT('',(13.25,1.85,5.45));
#1060=CARTESIAN_POINT('',(13.25,1.85,3.6));
#1061=CARTESIAN_POINT('',(18.25,1.85,1.75));
#1062=CARTESIAN_POINT('',(17.,1.85,5.45));
#1063=CARTESIAN_POINT('Origin',(15.75,8.,5.45));
#1064=CARTESIAN_POINT('',(13.25,0.5,5.45));
#1065=CARTESIAN_POINT('Origin',(2.625,14.5,0.));
#1066=CARTESIAN_POINT('',(2.625,15.5,-2.2));
#1067=CARTESIAN_POINT('',(1.625,14.5,-2.2));
#1068=CARTESIAN_POINT('Origin',(2.625,14.5,-2.2));
#1069=CARTESIAN_POINT('',(1.625,14.5,0.));
#1070=CARTESIAN_POINT('',(1.625,14.5,0.));
#1071=CARTESIAN_POINT('',(2.625,15.5,0.));
#1072=CARTESIAN_POINT('Origin',(2.625,14.5,0.));
#1073=CARTESIAN_POINT('',(2.625,15.5,0.));
#1074=CARTESIAN_POINT('Origin',(9.125,8.,-2.2));
#1075=CARTESIAN_POINT('',(15.625,15.5,-2.2));
#1076=CARTESIAN_POINT('',(16.625,15.5,-2.2));
#1077=CARTESIAN_POINT('',(16.625,14.5,-2.2));
#1078=CARTESIAN_POINT('Origin',(15.625,14.5,-2.2));
#1079=CARTESIAN_POINT('',(16.625,1.5,-2.2));
#1080=CARTESIAN_POINT('',(16.625,0.5,-2.2));
#1081=CARTESIAN_POINT('',(15.625,0.5,-2.2));
#1082=CARTESIAN_POINT('Origin',(15.625,1.5,-2.2));
#1083=CARTESIAN_POINT('',(2.625,0.5,-2.2));
#1084=CARTESIAN_POINT('',(1.625,0.5,-2.2));
#1085=CARTESIAN_POINT('',(1.625,1.5,-2.2));
#1086=CARTESIAN_POINT('Origin',(2.625,1.5,-2.2));
#1087=CARTESIAN_POINT('',(1.625,15.5,-2.2));
#1088=CARTESIAN_POINT('',(13.25,6.25,-2.2));
#1089=CARTESIAN_POINT('Origin',(11.75,6.25,-2.2));
#1090=CARTESIAN_POINT('Origin',(1.625,15.5,0.));
#1091=CARTESIAN_POINT('',(15.625,15.5,0.));
#1092=CARTESIAN_POINT('',(5.375,15.5,0.));
#1093=CARTESIAN_POINT('',(15.625,15.5,0.));
#1094=CARTESIAN_POINT('Origin',(15.625,14.5,0.));
#1095=CARTESIAN_POINT('',(16.625,14.5,0.));
#1096=CARTESIAN_POINT('Origin',(15.625,14.5,0.));
#1097=CARTESIAN_POINT('',(16.625,14.5,0.));
#1098=CARTESIAN_POINT('Origin',(2.625,1.5,0.));
#1099=CARTESIAN_POINT('',(2.625,0.5,0.));
#1100=CARTESIAN_POINT('',(2.625,0.5,0.));
#1101=CARTESIAN_POINT('',(1.625,1.5,0.));
#1102=CARTESIAN_POINT('Origin',(2.625,1.5,0.));
#1103=CARTESIAN_POINT('',(1.625,1.5,0.));
#1104=CARTESIAN_POINT('Origin',(16.625,0.5,0.));
#1105=CARTESIAN_POINT('',(15.625,0.5,0.));
#1106=CARTESIAN_POINT('',(15.625,0.5,0.));
#1107=CARTESIAN_POINT('',(12.875,0.5,0.));
#1108=CARTESIAN_POINT('Origin',(15.625,1.5,0.));
#1109=CARTESIAN_POINT('',(16.625,1.5,0.));
#1110=CARTESIAN_POINT('',(16.625,1.5,0.));
#1111=CARTESIAN_POINT('Origin',(15.625,1.5,0.));
#1112=CARTESIAN_POINT('Origin',(11.75,6.25,-2.2));
#1113=CARTESIAN_POINT('',(12.75,6.25,-2.7));
#1114=CARTESIAN_POINT('Origin',(11.75,6.25,-2.7));
#1115=CARTESIAN_POINT('Origin',(12.75,6.25,-2.2));
#1116=CARTESIAN_POINT('Origin',(11.75,6.25,-2.7));
#1117=CARTESIAN_POINT('Origin',(1.625,0.5,0.));
#1118=CARTESIAN_POINT('',(1.625,4.25,0.));
#1119=CARTESIAN_POINT('Origin',(16.625,15.5,0.));
#1120=CARTESIAN_POINT('',(16.625,11.75,0.));
#1121=CARTESIAN_POINT('Origin',(9.21,12.675,1.75));
#1122=CARTESIAN_POINT('',(-8.41372701613272E-16,12.675,1.75));
#1123=CARTESIAN_POINT('',(9.21,12.675,1.75));
#1124=CARTESIAN_POINT('',(9.1675,12.675,1.75));
#1125=CARTESIAN_POINT('',(-1.11022302462516E-15,12.675,3.65));
#1126=CARTESIAN_POINT('',(-8.41372701613272E-16,12.675,1.75));
#1127=CARTESIAN_POINT('',(9.21,12.675,3.65));
#1128=CARTESIAN_POINT('',(-8.41372701613272E-16,12.675,3.65));
#1129=CARTESIAN_POINT('',(9.21,12.675,1.75));
#1130=CARTESIAN_POINT('Origin',(9.21,3.325,1.75));
#1131=CARTESIAN_POINT('',(9.21,3.325,1.75));
#1132=CARTESIAN_POINT('',(9.21,5.6625,1.75));
#1133=CARTESIAN_POINT('',(9.21,3.325,3.65));
#1134=CARTESIAN_POINT('',(9.21,12.675,3.65));
#1135=CARTESIAN_POINT('',(9.21,3.325,1.75));
#1136=CARTESIAN_POINT('Origin',(-1.11022302462516E-15,3.325,1.75));
#1137=CARTESIAN_POINT('',(-8.41372701613272E-16,3.325,1.75));
#1138=CARTESIAN_POINT('',(4.5625,3.325,1.75));
#1139=CARTESIAN_POINT('',(-1.11022302462516E-15,3.325,3.65));
#1140=CARTESIAN_POINT('',(9.21,3.325,3.65));
#1141=CARTESIAN_POINT('',(-8.41372701613272E-16,3.325,1.75));
#1142=CARTESIAN_POINT('Origin',(4.605,8.,3.65));
#1143=CARTESIAN_POINT('',(-8.41372701613272E-16,3.325,3.65));
#1144=CARTESIAN_POINT('Origin',(9.125,8.,1.75));
#1145=CARTESIAN_POINT('',(0.,0.,1.75));
#1146=CARTESIAN_POINT('',(-9.79717439317883E-16,16.,1.75));
#1147=CARTESIAN_POINT('',(0.,0.,1.75));
#1148=CARTESIAN_POINT('',(13.25,15.5,1.75));
#1149=CARTESIAN_POINT('',(13.25,11.75,1.75));
#1150=CARTESIAN_POINT('',(13.6875,15.5,1.75));
#1151=CARTESIAN_POINT('',(-9.79717439317883E-16,16.,1.75));
#1152=CARTESIAN_POINT('',(18.25,16.,1.75));
#1153=CARTESIAN_POINT('',(-9.79717439317883E-16,16.,1.75));
#1154=CARTESIAN_POINT('Origin',(13.25,15.5,1.75));
#1155=CARTESIAN_POINT('',(13.25,15.5,1.75));
#1156=CARTESIAN_POINT('Origin',(18.25,15.5,1.75));
#1157=CARTESIAN_POINT('Origin',(18.25,16.,0.));
#1158=CARTESIAN_POINT('',(-9.79717439317883E-16,16.,0.));
#1159=CARTESIAN_POINT('',(18.25,16.,0.));
#1160=CARTESIAN_POINT('',(-9.79717439317883E-16,16.,0.));
#1161=CARTESIAN_POINT('Origin',(0.,0.,0.));
#1162=CARTESIAN_POINT('',(0.,0.,0.));
#1163=CARTESIAN_POINT('',(0.,0.,0.));
#1164=CARTESIAN_POINT('',(0.,0.,0.));
#1165=CARTESIAN_POINT('Origin',(-9.79717439317883E-16,16.,0.));
#1166=CARTESIAN_POINT('',(-9.79717439317883E-16,16.,0.));
#1167=CARTESIAN_POINT('Origin',(9.125,8.,0.));
#1168=UNCERTAINTY_MEASURE_WITH_UNIT(LENGTH_MEASURE(0.01),#1172,
'DISTANCE_ACCURACY_VALUE',
'Maximum model space distance between geometric entities at asserted c
onnectivities');
#1169=UNCERTAINTY_MEASURE_WITH_UNIT(LENGTH_MEASURE(0.01),#1172,
'DISTANCE_ACCURACY_VALUE',
'Maximum model space distance between geometric entities at asserted c
onnectivities');
#1170=(
GEOMETRIC_REPRESENTATION_CONTEXT(3)
GLOBAL_UNCERTAINTY_ASSIGNED_CONTEXT((#1168))
GLOBAL_UNIT_ASSIGNED_CONTEXT((#1172,#1174,#1175))
REPRESENTATION_CONTEXT('','3D')
);
#1171=(
GEOMETRIC_REPRESENTATION_CONTEXT(3)
GLOBAL_UNCERTAINTY_ASSIGNED_CONTEXT((#1169))
GLOBAL_UNIT_ASSIGNED_CONTEXT((#1172,#1174,#1175))
REPRESENTATION_CONTEXT('','3D')
);
#1172=(
LENGTH_UNIT()
NAMED_UNIT(*)
SI_UNIT(.MILLI.,.METRE.)
);
#1173=(
LENGTH_UNIT()
NAMED_UNIT(*)
SI_UNIT($,.METRE.)
);
#1174=(
NAMED_UNIT(*)
PLANE_ANGLE_UNIT()
SI_UNIT($,.RADIAN.)
);
#1175=(
NAMED_UNIT(*)
SI_UNIT($,.STERADIAN.)
SOLID_ANGLE_UNIT()
);
#1176=SHAPE_DEFINITION_REPRESENTATION(#1177,#1178);
#1177=PRODUCT_DEFINITION_SHAPE('',$,#1180);
#1178=SHAPE_REPRESENTATION('',(#730),#1170);
#1179=PRODUCT_DEFINITION_CONTEXT('part definition',#1184,'design');
#1180=PRODUCT_DEFINITION('l76k gps module','l76k gps module v3',#1181,#1179);
#1181=PRODUCT_DEFINITION_FORMATION('',$,#1186);
#1182=PRODUCT_RELATED_PRODUCT_CATEGORY('l76k gps module v3',
'l76k gps module v3',(#1186));
#1183=APPLICATION_PROTOCOL_DEFINITION('international standard',
'automotive_design',2009,#1184);
#1184=APPLICATION_CONTEXT(
'Core Data for Automotive Mechanical Design Process');
#1185=PRODUCT_CONTEXT('part definition',#1184,'mechanical');
#1186=PRODUCT('l76k gps module','l76k gps module v3',$,(#1185));
#1187=PRESENTATION_STYLE_ASSIGNMENT((#1188));
#1188=SURFACE_STYLE_USAGE(.BOTH.,#1189);
#1189=SURFACE_SIDE_STYLE('',(#1190));
#1190=SURFACE_STYLE_FILL_AREA(#1191);
#1191=FILL_AREA_STYLE('Steel - Satin',(#1192));
#1192=FILL_AREA_STYLE_COLOUR('Steel - Satin',#1193);
#1193=COLOUR_RGB('Steel - Satin',0.627450980392157,0.627450980392157,0.627450980392157);
ENDSEC;
END-ISO-10303-21;
